<?xml version="1.0" encoding="UTF-8" standalone="no"?>
<svg
   width="150"
   height="69"
   preserveAspectRatio="xMidYMid"
   version="1.0"
   viewBox="0 0 1331.25 618.125"
   id="svg1"
   xmlns="http://www.w3.org/2000/svg"
   xmlns:svg="http://www.w3.org/2000/svg">
  <defs
     id="defs1" />
  <g
     fill="#52ce63"
     stroke="none"
     id="g1"
     transform="matrix(1.9737302,0,0,1.9737302,5.2363318,102.29229)">
    <path
       fill="#52ce63"
       d="M 990,2071 C 951,2058 849,2005 742,1942 689,1910 566,1839 470,1784 264,1667 194,1607 164,1520 c -17,-50 -19,-88 -19,-460 0,-476 0,-474 94,-568 55,-56 124,-98 604,-369 169,-95 256,-104 384,-37 104,54 532,303 608,353 76,50 126,113 147,184 8,30 12,160 12,447 0,395 -1,406 -22,461 -34,85 -98,138 -317,264 -104,59 -237,136 -295,170 -153,90 -194,107 -275,111 -38,2 -81,0 -95,-5 z m 205,-561 c 66,-38 166,-95 223,-127 l 102,-58 v -262 c 0,-262 0,-263 -22,-276 -13,-8 -52,-31 -88,-51 -36,-21 -126,-72 -200,-115 l -135,-78 -3,261 -3,261 -166,95 c -91,52 -190,109 -219,125 -30,17 -52,34 -51,39 3,9 424,256 437,255 3,0 59,-31 125,-69 z"
       transform="matrix(0.1,0,0,-0.1,0,215)"
       id="path1" />
    <path
       style="font-weight:bold;font-size:142.355px;font-family:'DejaVu Sans';-inkscape-font-specification:'DejaVu Sans Bold';fill:#52ce63;stroke-width:6.95167"
       d="m 502.79305,279.54777 q -12.23364,0 -18.97604,9.0362 -6.7424,9.03621 -6.7424,25.4404 0,16.33468 6.7424,25.37088 6.7424,9.03621 18.97604,9.03621 12.30314,0 19.04554,-9.03621 6.7424,-9.0362 6.7424,-25.37088 0,-16.40419 -6.7424,-25.4404 -6.7424,-9.0362 -19.04554,-9.0362 z m 0,-19.39309 q 25.02334,0 39.20323,14.31891 14.17989,14.31891 14.17989,39.55078 0,25.16235 -14.17989,39.48127 -14.17989,14.31891 -39.20323,14.31891 -24.95383,0 -39.20323,-14.31891 -14.1799,-14.31892 -14.1799,-39.48127 0,-25.23187 14.1799,-39.55078 14.2494,-14.31891 39.20323,-14.31891 z m 97.38249,94.39359 v 40.87146 H 575.29122 V 287.95839 h 24.88432 v 11.39952 q 5.14369,-6.81191 11.39952,-10.00934 6.25584,-3.26693 14.38842,-3.26693 14.38842,0 23.63316,11.46903 9.24473,11.39952 9.24473,29.40242 0,18.0029 -9.24473,29.47193 -9.24474,11.39953 -23.63316,11.39953 -8.13258,0 -14.38842,-3.19743 -6.25583,-3.26694 -11.39952,-10.07885 z m 16.54321,-50.39422 q -7.99357,0 -12.30314,5.90829 -4.24007,5.83878 -4.24007,16.89075 0,11.05198 4.24007,16.96027 4.30957,5.83877 12.30314,5.83877 7.99356,0 12.16412,-5.83877 4.24007,-5.83878 4.24007,-16.96027 0,-11.12148 -4.24007,-16.96026 -4.17056,-5.83878 -12.16412,-5.83878 z m 138.18444,22.521 v 7.08995 h -58.17927 q 0.90362,8.75817 6.32535,13.13725 5.42172,4.37909 15.15302,4.37909 7.85455,0 16.05664,-2.29381 8.27161,-2.36331 16.96026,-7.08994 v 19.18456 q -8.82767,3.33644 -17.65535,5.00466 -8.82768,1.73774 -17.65536,1.73774 -21.13082,0 -32.87788,-10.70443 -11.67756,-10.77394 -11.67756,-30.16703 0,-19.04554 11.46903,-29.9585 11.53854,-10.91295 31.69623,-10.91295 18.35045,0 29.33291,11.05197 11.05198,11.05198 11.05198,29.54144 z m -25.57942,-8.2716 q 0,-7.08994 -4.17055,-11.39952 -4.10105,-4.37908 -10.77394,-4.37908 -7.22897,0 -11.74707,4.10104 -4.5181,4.03154 -5.63025,11.67756 z m 122.68388,0 v 47.40533 h -25.02334 v -7.71553 -28.56831 q 0,-10.07885 -0.48657,-13.90186 -0.41705,-3.82301 -1.5292,-5.63025 -1.4597,-2.43283 -3.96203,-3.7535 -2.50233,-1.39019 -5.69976,-1.39019 -7.78504,0 -12.23363,6.04731 -4.4486,5.9778 -4.4486,16.61272 v 38.29961 H 773.7402 v -77.85039 h 24.88432 v 11.39952 q 5.63025,-6.81191 11.9556,-10.00934 6.32534,-3.26693 13.97136,-3.26693 13.4848,0 20.43573,8.2716 7.02044,8.27161 7.02044,24.05021 z m 24.18921,-56.37202 h 44.41643 q 19.81014,0 30.37555,8.82768 10.63492,8.75817 10.63492,25.02334 0,16.33468 -10.63492,25.16235 -10.56541,8.75817 -30.37555,8.75817 h -17.65536 v 36.00581 h -26.76107 z m 26.76107,19.39309 v 28.98536 h 14.80548 q 7.78504,0 12.0251,-3.7535 4.24007,-3.82301 4.24007,-10.77393 0,-6.95093 -4.24007,-10.70443 -4.24006,-3.7535 -12.0251,-3.7535 z m 107.53087,49.35158 q -7.785,0 -11.74706,2.64135 -3.89252,2.64136 -3.89252,7.78504 0,4.72663 3.12792,7.4375 3.19746,2.64135 8.82766,2.64135 7.0205,0 11.8166,-5.00467 4.7961,-5.07418 4.7961,-12.65069 v -2.84988 z m 38.0216,-9.38375 v 44.41643 h -25.0929 v -11.53854 q -5.0046,7.08994 -11.2605,10.35688 -6.2558,3.19743 -15.2225,3.19743 -12.09461,0 -19.67113,-7.02044 -7.507,-7.08995 -7.507,-18.35045 0,-13.69333 9.38376,-20.08818 9.45326,-6.39485 29.61097,-6.39485 h 14.6664 v -1.94626 q 0,-5.90829 -4.6571,-8.61915 -4.6571,-2.78037 -14.5274,-2.78037 -7.99359,0 -14.87501,1.59871 -6.88142,1.59871 -12.78971,4.79614 v -18.97603 q 7.99357,-1.94626 16.05664,-2.91939 8.06308,-1.04264 16.12618,-1.04264 21.0613,0 30.3755,8.34111 9.3838,8.2716 9.3838,26.9696 z m 101.414,-2.9889 v 47.40533 h -25.0233 v -7.71553 -28.56831 q 0,-10.07885 -0.4866,-13.90186 -0.417,-3.82301 -1.5292,-5.63025 -1.4597,-2.43283 -3.962,-3.7535 -2.5023,-1.39019 -5.6998,-1.39019 -7.785,0 -12.2336,6.04731 -4.4486,5.9778 -4.4486,16.61272 v 38.29961 h -24.8843 v -77.85039 h 24.8843 v 11.39952 q 5.6303,-6.81191 11.9556,-10.00934 6.3253,-3.26693 13.9714,-3.26693 13.4848,0 20.4357,8.2716 7.0204,8.27161 7.0204,24.05021 z m 100.7884,8.2716 v 7.08995 h -58.1792 q 0.9036,8.75817 6.3253,13.13725 5.4217,4.37909 15.153,4.37909 7.8546,0 16.0567,-2.29381 8.2716,-2.36331 16.9602,-7.08994 v 19.18456 q -8.8276,3.33644 -17.6553,5.00466 -8.8277,1.73774 -17.6554,1.73774 -21.1308,0 -32.8779,-10.70443 -11.6775,-10.77394 -11.6775,-30.16703 0,-19.04554 11.469,-29.9585 11.5386,-10.91295 31.6962,-10.91295 18.3505,0 29.333,11.05197 11.0519,11.05198 11.0519,29.54144 z m -25.5794,-8.2716 q 0,-7.08994 -4.1705,-11.39952 -4.1011,-4.37908 -10.774,-4.37908 -7.2289,0 -11.747,4.10104 -4.5181,4.03154 -5.6303,11.67756 z m 44.4165,-60.75111 h 24.8843 v 108.15644 h -24.8843 z"
       id="text5"
       aria-label="OpenPanel"
       transform="matrix(0.50665487,0,0,0.50665487,-2.653013,-51.826886)" />
  </g>
</svg>
